<?xml version="1.0" standalone="no"?>
<!DOCTYPE svg PUBLIC "-//W3C//DTD SVG 20010904//EN"
 "http://www.w3.org/TR/2001/REC-SVG-20010904/DTD/svg10.dtd">
<svg version="1.0" xmlns="http://www.w3.org/2000/svg"
 width="550.000000pt" height="550.000000pt" viewBox="0 0 550.000000 550.000000"
 preserveAspectRatio="xMidYMid meet">

<g transform="translate(0.000000,550.000000) scale(0.100000,-0.100000)"
fill="#000000" stroke="none">
<path d="M1278 4713 c-23 -6 -33 -45 -19 -71 11 -21 50 -32 117 -32 44 0 44 0
44 35 0 25 -6 38 -22 49 -26 16 -93 27 -120 19z"/>
<path d="M3212 4584 c-15 -10 -22 -24 -20 -37 2 -18 10 -22 37 -22 45 0 62 26
37 54 -23 25 -25 25 -54 5z"/>
<path d="M2886 4392 c-2 -4 2 -22 10 -40 11 -26 19 -33 36 -30 17 2 24 11 26
32 2 16 -2 32 -10 37 -16 11 -55 12 -62 1z"/>
<path d="M2020 4133 c-8 -3 -26 -10 -39 -15 -23 -8 -23 -9 -6 -28 20 -22 65
-26 83 -8 7 7 12 22 12 35 0 23 -17 28 -50 16z"/>
<path d="M1499 3930 c-30 -16 -69 -57 -69 -74 0 -2 14 -7 31 -11 23 -5 39 -1
70 20 46 30 56 49 39 70 -16 19 -27 18 -71 -5z"/>
<path d="M1233 3813 c-17 -6 -17 -33 0 -33 14 0 37 20 37 32 0 9 -18 9 -37 1z"/>
<path d="M3977 3704 c-15 -15 -7 -45 11 -42 9 2 17 12 17 22 0 20 -16 31 -28
20z"/>
<path d="M957 3623 c-21 -20 -37 -41 -37 -45 0 -13 75 -9 94 5 22 16 18 70 -5
75 -9 2 -32 -14 -52 -35z"/>
<path d="M2932 3363 c-16 -29 -15 -48 3 -63 21 -17 29 7 17 51 -8 33 -9 33
-20 12z"/>
<path d="M1896 3325 c-8 -51 -3 -65 24 -65 38 0 53 65 22 93 -29 27 -39 20
-46 -28z"/>
<path d="M3533 3173 c-22 -8 -15 -51 12 -69 50 -33 76 12 32 54 -25 23 -25 23
-44 15z"/>
<path d="M2942 3128 c-16 -16 -15 -39 4 -66 24 -35 35 -26 32 25 -3 48 -15 62
-36 41z"/>
<path d="M1910 3116 c0 -9 5 -16 10 -16 6 0 10 4 10 9 0 6 -4 13 -10 16 -5 3
-10 -1 -10 -9z"/>
<path d="M1650 2928 c-73 -28 -160 -115 -183 -182 -9 -27 -15 -51 -13 -53 2
-3 32 18 67 46 34 28 97 69 139 91 71 36 140 92 140 112 0 16 -96 7 -150 -14z"/>
<path d="M2334 2895 c-8 -21 15 -65 33 -65 22 0 13 74 -10 78 -9 2 -20 -4 -23
-13z"/>
<path d="M3453 2899 c-22 -8 -39 -42 -28 -59 3 -5 26 -10 51 -10 49 0 63 15
45 48 -13 24 -39 32 -68 21z"/>
<path d="M1989 2881 c12 -22 109 -111 122 -111 14 0 11 9 -18 50 -43 59 -130
111 -104 61z"/>
<path d="M3195 2881 c3 -5 31 -15 63 -21 31 -6 69 -13 85 -16 38 -8 34 9 -8
29 -38 18 -151 24 -140 8z"/>
<path d="M2893 2819 c-30 -19 -34 -19 -49 -5 -20 20 -20 20 -55 -5 -43 -30
-40 -65 7 -78 23 -6 43 -7 54 -1 26 14 80 79 80 95 0 19 1 19 -37 -6z"/>
<path d="M2280 2760 c0 -57 23 -80 60 -60 33 18 27 66 -12 90 -18 11 -36 20
-40 20 -5 0 -8 -22 -8 -50z"/>
<path d="M3417 2719 c-6 -79 -6 -83 21 -113 15 -17 34 -43 43 -56 9 -14 19
-23 22 -20 3 3 9 40 13 82 l7 76 -44 55 c-24 31 -47 56 -50 56 -3 1 -9 -36
-12 -80z"/>
<path d="M1756 2724 c-26 -26 -18 -36 14 -17 17 9 30 21 30 25 0 14 -28 9 -44
-8z"/>
<path d="M3120 2720 c-30 -30 -24 -40 24 -40 52 0 65 13 40 41 -22 24 -39 24
-64 -1z"/>
<path d="M1845 2720 c3 -5 11 -10 16 -10 6 0 7 5 4 10 -3 6 -11 10 -16 10 -6
0 -7 -4 -4 -10z"/>
<path d="M1786 2694 c-11 -28 -6 -104 8 -139 19 -44 56 -67 125 -76 116 -16
137 20 33 57 -34 13 -62 20 -62 16 0 -3 -7 3 -15 14 -8 12 -28 27 -44 34 l-30
12 14 43 c7 24 10 46 7 49 -11 11 -30 6 -36 -10z"/>
<path d="M2053 2658 c25 -43 47 -60 47 -37 0 17 -48 79 -62 79 -5 0 1 -19 15
-42z"/>
<path d="M3053 2668 c-9 -13 -12 -21 -47 -100 -19 -44 -19 -150 0 -175 12 -17
13 -17 14 3 0 12 7 25 16 28 16 6 16 8 0 24 -30 35 -15 138 29 191 14 16 25
32 25 35 0 11 -27 6 -37 -6z"/>
<path d="M3100 2625 c0 -57 21 -100 60 -120 29 -15 30 -15 30 8 0 14 -8 35
-18 48 -10 13 -19 40 -21 59 -3 35 -14 50 -38 50 -9 0 -13 -16 -13 -45z"/>
<path d="M3330 2578 c0 -7 4 -19 9 -27 15 -23 -16 -40 -56 -31 -20 5 -43 3
-58 -4 -29 -13 -31 -19 -10 -36 20 -16 102 -6 126 16 17 15 19 14 25 -10 3
-14 10 -23 15 -20 12 7 12 47 0 60 -5 5 -11 20 -13 34 -3 25 -38 42 -38 18z"/>
<path d="M3396 2478 c-11 -163 -23 -255 -40 -280 -7 -13 -16 -38 -20 -57 l-6
-34 42 6 c55 7 73 30 87 110 18 105 13 223 -12 296 -33 97 -43 89 -51 -41z"/>
<path d="M1256 2555 c-9 -24 1 -35 30 -35 21 0 25 4 22 23 -4 27 -42 36 -52
12z"/>
<path d="M2020 2536 c0 -14 5 -28 10 -31 6 -3 10 5 10 19 0 14 -4 28 -10 31
-6 3 -10 -5 -10 -19z"/>
<path d="M883 2514 c-3 -9 -1 -24 5 -33 13 -17 16 -25 26 -54 4 -13 14 -17 33
-15 41 4 43 45 4 86 -32 35 -58 41 -68 16z"/>
<path d="M1707 2492 c-19 -20 -22 -48 -8 -56 12 -8 23 22 15 37 -5 8 -2 7 7 0
7 -7 21 -13 30 -13 10 0 33 -15 52 -33 79 -74 183 -102 218 -58 l19 23 6 -41
c7 -47 19 -52 36 -16 8 18 8 31 0 49 -13 29 -37 29 -93 1 -52 -25 -78 -15
-151 60 -69 70 -101 81 -131 47z"/>
<path d="M2030 2471 c0 -11 5 -23 10 -26 6 -3 10 3 10 14 0 11 -4 23 -10 26
-5 3 -10 -3 -10 -14z"/>
<path d="M1081 2451 c-27 -27 -27 -57 2 -75 29 -19 66 -10 72 18 14 61 11 71
-22 74 -22 2 -38 -3 -52 -17z"/>
<path d="M3060 2397 c1 -33 69 -82 102 -74 13 3 32 -1 42 -9 28 -20 57 -17 63
6 3 13 19 24 44 30 37 10 52 34 33 53 -9 8 -68 -17 -101 -43 -34 -26 -52 -25
-98 6 -52 35 -85 47 -85 31z"/>
<path d="M5055 2376 c-10 -16 -14 -33 -9 -51 6 -25 10 -27 43 -21 20 3 42 6
49 6 19 0 14 55 -6 73 -26 24 -59 21 -77 -7z"/>
<path d="M2060 2190 c0 -5 5 -10 10 -10 6 0 10 5 10 10 0 6 -4 10 -10 10 -5 0
-10 -4 -10 -10z"/>
<path d="M4574 2155 c-7 -27 21 -105 38 -105 9 0 9 64 -1 99 -9 34 -29 37 -37
6z"/>
<path d="M720 2041 c0 -12 6 -21 16 -21 9 0 14 7 12 17 -5 25 -28 28 -28 4z"/>
<path d="M3398 1984 c-5 -4 -8 -16 -8 -28 0 -14 3 -17 11 -9 6 6 9 19 7 28 -1
9 -6 13 -10 9z"/>
<path d="M992 1818 c-16 -16 -15 -53 2 -67 16 -14 26 4 26 50 0 31 -9 36 -28
17z"/>
<path d="M2346 1814 c-21 -20 -20 -30 4 -54 23 -23 50 -26 68 -8 19 19 14 45
-10 62 -28 20 -43 20 -62 0z"/>
<path d="M1324 1729 c14 -17 26 -38 26 -48 0 -10 6 -18 13 -18 6 0 20 -4 30
-8 25 -10 22 18 -5 58 -29 41 -38 47 -66 47 l-24 0 26 -31z"/>
<path d="M3762 1707 c-18 -18 -32 -36 -32 -40 0 -12 64 -47 86 -47 11 0 35 15
52 33 36 37 35 40 -25 71 -43 21 -44 21 -81 -17z"/>
<path d="M1173 1629 c-18 -12 -33 -24 -33 -28 0 -4 16 -22 35 -41 l35 -34 55
27 c30 15 55 30 55 34 -1 13 -79 63 -98 63 -9 0 -32 -10 -49 -21z"/>
<path d="M4016 1615 c-9 -25 -7 -75 3 -75 20 0 42 34 39 59 -3 29 -32 40 -42
16z"/>
<path d="M390 1551 c0 -5 20 -27 45 -50 50 -46 88 -53 105 -21 15 28 -2 55
-41 69 -38 13 -109 15 -109 2z"/>
<path d="M971 1501 c-16 -29 -14 -46 9 -66 27 -25 42 -9 38 41 -3 44 -30 58
-47 25z"/>
<path d="M1560 1491 c0 -5 16 -23 36 -41 27 -23 39 -28 44 -19 9 13 3 36 -13
57 -11 14 -67 17 -67 3z"/>
<path d="M5127 1493 c-14 -13 -5 -59 16 -84 18 -21 27 -25 44 -18 12 4 25 20
29 35 6 22 2 32 -20 51 -27 23 -56 30 -69 16z"/>
<path d="M3085 1428 c-16 -6 -59 -23 -95 -38 -36 -15 -87 -31 -113 -35 -39 -5
-50 -11 -58 -32 -5 -14 -8 -28 -5 -30 8 -9 133 -6 176 4 53 13 111 33 126 44
14 11 24 1 17 -16 -5 -15 20 -146 36 -185 8 -20 9 -14 4 28 l-6 53 38 -25 c21
-14 41 -26 45 -26 14 0 -19 104 -37 117 -9 7 -25 11 -35 7 -28 -9 -35 39 -9
65 26 26 26 43 3 64 -21 19 -43 20 -87 5z"/>
<path d="M4957 1373 c-4 -3 -7 -17 -7 -29 0 -17 11 -29 39 -44 45 -22 56 -15
46 30 -9 39 -57 65 -78 43z"/>
<path d="M1885 1360 c-3 -5 0 -12 7 -14 7 -2 28 -9 47 -15 39 -13 50 -7 35 17
-12 19 -79 29 -89 12z"/>
<path d="M2042 1348 c-16 -16 -15 -38 2 -38 7 0 28 -3 45 -6 26 -6 31 -3 31
13 0 25 -19 43 -45 43 -12 0 -26 -5 -33 -12z"/>
<path d="M2300 1296 c0 -2 18 -6 39 -8 22 -2 37 0 35 4 -5 8 -74 11 -74 4z"/>
<path d="M1077 985 c-18 -39 -14 -65 12 -65 34 0 51 41 35 84 -10 26 -29 18
-47 -19z"/>
<path d="M3551 1001 c-9 -15 -4 -25 23 -54 l33 -36 12 25 c15 34 14 50 -5 68
-21 22 -51 20 -63 -3z"/>
<path d="M4464 912 c-22 -15 -24 -49 -9 -148 19 -121 14 -140 -43 -149 -85
-13 -138 -27 -209 -55 -109 -44 -194 -38 -248 16 -32 32 -80 32 -96 2 -7 -13
-34 -49 -62 -81 -58 -67 -83 -72 -106 -19 -8 17 -17 32 -20 32 -3 0 -19 -12
-36 -27 l-29 -26 21 -36 c26 -45 75 -75 108 -67 34 9 88 58 121 110 30 48 31
48 136 3 71 -30 145 -27 250 11 47 17 115 36 150 42 122 22 143 54 152 229 4
78 2 110 -9 131 -18 35 -47 48 -71 32z"/>
<path d="M3850 865 c0 -16 6 -25 15 -25 9 0 15 9 15 25 0 16 -6 25 -15 25 -9
0 -15 -9 -15 -25z"/>
<path d="M841 818 c-5 -13 -6 -27 -4 -31 7 -11 43 23 43 40 0 22 -30 15 -39
-9z"/>
<path d="M1217 604 c-13 -13 -7 -59 11 -82 l18 -23 24 26 c23 24 24 28 9 53
-14 26 -48 40 -62 26z"/>
<path d="M1480 412 c0 -36 37 -55 87 -46 23 4 47 1 73 -11 40 -18 75 -14 68 8
-6 18 -49 36 -115 48 -32 6 -66 15 -75 20 -29 15 -38 10 -38 -19z"/>
</g>
</svg>
